<?xml version="1.0" standalone="no"?>
<!DOCTYPE svg PUBLIC "-//W3C//DTD SVG 20010904//EN"
 "http://www.w3.org/TR/2001/REC-SVG-20010904/DTD/svg10.dtd">
<svg version="1.0" xmlns="http://www.w3.org/2000/svg"
 width="16.000000pt" height="16.000000pt" viewBox="0 0 16.000000 16.000000"
 preserveAspectRatio="xMidYMid meet">
<metadata>
Created by potrace 1.11, written by Peter Selinger 2001-2013
</metadata>
<g transform="translate(0.000000,16.000000) scale(0.004819,-0.004819)"
fill="#000000" stroke="none">
<path d="M2055 2400 c-78 -16 -125 -42 -172 -94 -58 -63 -89 -143 -104 -271
-14 -114 -5 -669 12 -740 28 -120 94 -216 173 -257 50 -25 159 -35 208 -19 19
6 54 27 76 47 l42 35 6 -40 7 -41 83 0 84 0 0 360 0 360 -170 0 -170 0 0 -90
0 -90 56 0 57 0 -5 -124 c-4 -105 -9 -131 -29 -172 -28 -57 -68 -75 -117 -55
-56 23 -57 30 -60 471 -3 420 1 471 38 505 9 8 33 16 53 17 69 2 97 -46 104
-183 l6 -99 97 0 98 0 12 66 c15 80 8 204 -14 257 -24 55 -80 112 -134 135
-55 24 -177 35 -237 22z"/>
<path d="M850 1710 l0 -690 120 0 120 0 0 310 0 310 120 0 120 0 0 100 0 100
-120 0 -120 0 0 175 0 175 155 0 155 0 0 105 0 105 -275 0 -275 0 0 -690z"/>
<path d="M1430 1710 l0 -690 125 0 125 0 0 690 0 690 -125 0 -125 0 0 -690z"/>
</g>
</svg>
